<?xml version="1.0" encoding="UTF-8" standalone="no"?><!DOCTYPE svg PUBLIC "-//W3C//DTD SVG 1.1//EN" "http://www.w3.org/Graphics/SVG/1.1/DTD/svg11.dtd"><svg width="100%" height="100%" viewBox="0 0 517 78" version="1.1" xmlns="http://www.w3.org/2000/svg" xmlns:xlink="http://www.w3.org/1999/xlink" xml:space="preserve" xmlns:serif="http://www.serif.com/" style="fill-rule:evenodd;clip-rule:evenodd;stroke-linejoin:round;stroke-miterlimit:2;"><path d="M465.151,77.678l-7.115,0l2.619,-28.154l20.618,0.141c6.308,0.021 10.652,4.504 9.971,11.26l-1.728,16.754l-7.122,0l1.802,-17.469c0.256,-2.535 -0.758,-3.449 -2.929,-3.461l-2.079,0l0,-0.001l-2.109,20.93l-7.121,0l2.11,-20.93l-4.965,-0.047l-1.952,20.977Zm-8.431,-20.92l-10.731,-0.002c-2.577,0 -4.087,0.916 -4.795,7.008c-0.629,5.406 1.098,6.791 3.673,6.791c2.009,0 6.627,0.041 10.46,0.02l-0.715,7.088c-3.909,0.02 -8.304,-0.025 -10.23,-0.025c-7.385,0 -10.999,-5.635 -10.236,-14.584c0.705,-8.277 4.339,-13.381 11.187,-13.381l12.103,0.002l-0.716,7.083Zm-54.309,-56.522c17.451,0 29.416,13.176 26.849,38.764c-2.553,25.434 -11.91,38.578 -30.466,38.543l-15.422,0.047c-21.741,-0.064 -30.664,-16.996 -28.306,-40.511c2.233,-22.271 13.24,-36.833 29.764,-36.833l17.581,-0.01Zm112.458,56.414m0,0l-11.609,0.004c-2.977,0 -2.823,3.566 -0.449,3.566l4.904,0.008c11.772,0 10.956,17.35 -0.928,17.35l-14.01,-0.023l0.715,-7.086l13.55,0.023c2.728,0 2.698,-3.797 0.421,-3.797l-4.652,-0.004c-11.85,0 -11.245,-17.121 0.909,-17.121l11.864,-0.006l-0.715,7.086Zm-279.343,20.445l-19.477,0l4.818,-47.804c1.994,-17.543 12.086,-28.706 28.972,-28.706l15.02,0c17.255,0.059 29.14,12.2 27.276,30.684l-4.729,45.826l-19.483,0l2.498,-24.197l-32.456,0l-2.439,24.197Zm-216.049,-0.062l-19.477,0l7.693,-76.441l40.235,-0.017c18.08,0 28.767,14.029 27.661,26.592c-0.873,9.903 -4.504,18.04 -15.102,23.823l11.55,26.043l-21.2,0l-10.255,-23.125l-18.773,0l-2.332,23.125Zm169.167,-76.447c40.22,0 33.684,76.445 -4.001,76.445l-40.556,0.002l7.717,-76.447l36.84,0Zm-49.052,76.447l-33.421,0c-19.704,0 -30.603,-15.363 -28.096,-39.864c2.647,-25.87 13.007,-36.591 30.669,-36.591l38.572,0.008l-1.929,19.29l-36.62,-0.007c-4.733,0 -8.07,2.678 -9.695,9.58l38.772,0l-1.733,17.197l-38.888,0c0.302,7.949 2.9,10.555 9.557,10.58c5.591,0.023 23.705,0.291 34.805,0.346l-1.993,19.461Zm172.153,-76.266l14.183,23.392l14.995,-23.392l24.255,0l-27.466,41.426l23.818,34.774l-22.813,0l-11.53,-18.139l-12.075,18.139l-25.112,0l24.86,-36.447l-24.826,-39.753l21.711,0Zm90.22,19.056c-0.944,0 -15.735,0.009 -15.735,0.009c-6.518,0 -10.344,5.909 -11.752,19.539c-1.568,15.178 2.851,18.777 9.41,18.633c0,0 12.034,-0.047 13.682,-0.047c7.08,0 10.62,-3.846 12.146,-18.533c1.48,-15.279 -0.635,-19.601 -7.751,-19.601Zm-214.093,0.132l-18.554,0l-3.8,37.697l18.704,0c6.029,0 11.168,-6.525 12.501,-20.569c0.969,-10.202 -3.165,-17.128 -8.851,-17.128Zm76.969,-0.109l-14.951,0c-6.049,0.204 -8.874,2.849 -9.741,11.389l-0.45,4.466l32.497,0l0.659,-6.387c0.722,-6.08 -1.565,-9.444 -8.014,-9.468Zm-241.079,14.683l22.694,0c5.715,0 9.697,-2.852 9.697,-7.567c0,-3.574 -2.76,-6.984 -7.741,-6.984c-3.859,0 -14.714,-0.059 -23.173,-0.102l-1.477,14.653Z" style="fill:#fff;fill-rule:nonzero;"/></svg>